<svg xmlns="http://www.w3.org/2000/svg" height="40" fill="#B8B8B9" width="40"><path d="M6.125 23.333q0 3.959 1.958 7.188 1.959 3.229 5.25 4.937-1.041-1.083-1.541-2.5-.5-1.416-.5-3 0-1.75.625-3.312.625-1.563 1.958-2.771L20 17.792l6.208 6.083q1.292 1.208 1.917 2.771.625 1.562.625 3.312 0 1.542-.521 2.98-.521 1.437-1.521 2.52 3.25-1.708 5.23-4.937 1.979-3.229 1.979-7.188 0-3.875-2.021-7.166-2.021-3.292-5.354-5.25L25.5 12.208q-.458.584-1 .813-.542.229-1.125.229-1.042 0-1.917-.729t-.875-2.021V4.083l-2.291 1.313Q16 6.708 13.312 9.208q-2.687 2.5-4.937 6.063-2.25 3.562-2.25 8.062ZM20 23.458l-3.333 3.292q-.667.667-1.021 1.479-.354.813-.354 1.729 0 1.917 1.396 3.271 1.395 1.354 3.312 1.354 1.958 0 3.333-1.354 1.375-1.354 1.375-3.271 0-.916-.333-1.729-.333-.812-1-1.479Z"/></svg>